<?xml version="1.0" encoding="UTF-8" standalone="no"?><!-- Generator: Gravit.io --><svg xmlns="http://www.w3.org/2000/svg" xmlns:xlink="http://www.w3.org/1999/xlink" style="isolation:isolate" viewBox="0 0 100 100" width="100pt" height="100pt"><defs><clipPath id="_clipPath_LK2Xdw0t9HseW6Jok4fZyiEhw30K70A9"><rect width="100" height="100"/></clipPath></defs><g clip-path="url(#_clipPath_LK2Xdw0t9HseW6Jok4fZyiEhw30K70A9)"><clipPath id="_clipPath_kFDvUAjAt8xL4XDubFR34vTzW6fIWxoB"><rect x="0" y="0" width="100" height="100" transform="matrix(1,0,0,1,0,0)" fill="rgb(255,255,255)"/></clipPath><g clip-path="url(#_clipPath_kFDvUAjAt8xL4XDubFR34vTzW6fIWxoB)"><g><path d=" M 85.836 88.832 Q 86.758 88.832 87.504 88.832 L 87.504 13.778 Q 86.758 13.778 85.836 13.778 L 14.118 13.778 Q 13.197 13.778 12.496 13.778 L 12.496 88.832 L 14.118 88.832 L 85.836 88.832 Z  M 84.168 85.496 L 15.786 85.496 L 15.786 17.114 L 84.168 17.114 L 84.168 85.496 Z " fill="rgb(0,0,0)"/><path d=" M 50 15.225 C 48.827 15.225 47.878 16.175 47.878 17.347 L 47.878 49.183 L 16.042 49.183 C 14.87 49.183 13.92 50.134 13.92 51.305 C 13.92 52.478 14.87 53.428 16.042 53.428 L 47.878 53.428 L 47.878 85.263 C 47.878 86.435 48.827 87.385 50 87.385 C 51.173 87.385 52.122 86.435 52.122 85.263 L 52.122 53.428 L 83.958 53.428 C 85.13 53.428 86.08 52.478 86.08 51.305 C 86.08 50.134 85.13 49.183 83.958 49.183 L 52.122 49.183 L 52.122 17.347 C 52.122 16.175 51.173 15.225 50 15.225 Z " fill="rgb(0,0,0)"/></g></g></g></svg>