<?xml version="1.0" encoding="UTF-8" standalone="no"?><!-- Generator: Gravit.io --><svg xmlns="http://www.w3.org/2000/svg" xmlns:xlink="http://www.w3.org/1999/xlink" style="isolation:isolate" viewBox="0 0 100 100" width="100pt" height="100pt"><defs><clipPath id="_clipPath_PI69OpPnYc3e9qBN9BCpCadvUf1H6XkP"><rect width="100" height="100"/></clipPath></defs><g clip-path="url(#_clipPath_PI69OpPnYc3e9qBN9BCpCadvUf1H6XkP)"><clipPath id="_clipPath_cCq00UngEcxLmlTA3PGryFjVgU69OFt3"><rect x="0" y="0" width="100" height="100" transform="matrix(1,0,0,1,0,0)" fill="rgb(255,255,255)"/></clipPath><g clip-path="url(#_clipPath_cCq00UngEcxLmlTA3PGryFjVgU69OFt3)"><g/><g><g><path d=" M 82.884 90.125 Q 83.729 90.125 84.414 90.125 L 84.414 21.255 Q 83.729 21.255 82.884 21.255 L 17.074 21.255 Q 16.229 21.255 15.586 21.255 L 15.586 90.125 L 17.074 90.125 L 82.884 90.125 Z  M 81.353 87.064 L 18.605 87.064 L 18.605 24.316 L 81.353 24.316 L 81.353 87.064 Z " fill="rgb(0,0,0)"/><rect x="0" y="0" width="100" height="100" transform="matrix(1,0,0,1,0,0)" fill="none"/></g></g></g><rect x="15.656" y="5.348" width="68.719" height="3.43" transform="matrix(1,0,0,1,0,0)" fill="rgb(0,0,0)"/></g></svg>