<?xml version="1.0" encoding="UTF-8" standalone="no"?><!-- Generator: Gravit.io --><svg xmlns="http://www.w3.org/2000/svg" xmlns:xlink="http://www.w3.org/1999/xlink" style="isolation:isolate" viewBox="0 0 280 150" width="280pt" height="150pt"><defs><clipPath id="_clipPath_85ZgKRSY7GH18QHeWoeQgbLwv4W1tOr9"><rect width="280" height="150"/></clipPath></defs><g clip-path="url(#_clipPath_85ZgKRSY7GH18QHeWoeQgbLwv4W1tOr9)"><g><g><g><path d=" M 89.184 113.834 C 84.382 113.543 80.58 109.601 80.58 104.742 L 80.58 49.829 C 80.58 44.793 84.676 40.719 89.729 40.719 L 113.627 40.719 L 122.101 28.025 C 122.525 27.389 123.238 27.007 124.002 27.007 L 155.998 27.007 C 156.762 27.007 157.475 27.389 157.899 28.025 L 164.746 38.273 L 161.44 41.579 L 154.764 31.578 L 125.236 31.578 L 116.762 44.272 C 116.338 44.908 115.625 45.29 114.861 45.29 L 89.729 45.29 C 87.195 45.29 85.151 47.323 85.151 49.829 L 85.151 104.742 C 85.151 107.256 87.199 109.281 89.756 109.281 L 93.738 109.281 L 89.184 113.834 Z  M 108.559 113.852 L 190.244 113.852 C 195.327 113.852 199.42 109.786 199.42 104.742 L 199.42 49.829 C 199.42 44.78 195.327 40.719 190.271 40.719 L 181.691 40.719 L 177.121 45.29 L 190.271 45.29 C 192.811 45.29 194.849 47.313 194.849 49.829 L 194.849 104.742 C 194.849 107.255 192.81 109.281 190.244 109.281 L 113.13 109.281 L 108.559 113.852 Z  M 161.093 61.318 C 163.652 65.255 165.139 69.954 165.139 75 C 165.139 88.884 153.884 100.139 140 100.139 C 134.954 100.139 130.255 98.652 126.318 96.093 L 129.639 92.772 C 132.681 94.55 136.222 95.568 140 95.568 C 151.36 95.568 160.568 86.36 160.568 75 C 160.568 71.222 159.55 67.681 157.772 64.639 L 161.093 61.318 Z  M 150.75 52.269 C 147.491 50.725 143.846 49.861 140 49.861 C 126.116 49.861 114.861 61.116 114.861 75 C 114.861 78.846 115.725 82.491 117.269 85.75 L 120.752 82.267 C 119.899 80.007 119.432 77.558 119.432 75 C 119.432 63.64 128.64 54.432 140 54.432 C 142.558 54.432 145.007 54.899 147.267 55.752 L 150.75 52.269 Z  M 176.566 63.573 C 179.091 63.573 181.137 61.527 181.137 59.002 C 181.137 56.478 179.091 54.432 176.566 54.432 C 174.042 54.432 171.995 56.478 171.995 59.002 C 171.995 61.527 174.042 63.573 176.566 63.573 Z  M 190.948 18.535 L 81.249 128.233 C 80.357 129.126 80.357 130.573 81.249 131.465 C 82.142 132.358 83.589 132.358 84.481 131.465 L 194.18 21.767 C 195.072 20.874 195.072 19.427 194.18 18.535 C 193.287 17.642 191.84 17.642 190.948 18.535 Z " fill-rule="evenodd" fill="rgb(0,0,0)"/></g></g></g></g></svg>